<svg xmlns="http://www.w3.org/2000/svg" viewBox="0 0 24 24" fill="none">
  <!-- Antenna -->
  <line x1="12" y1="6" x2="12" y2="3" stroke="#000000" stroke-width="1.5" stroke-linecap="round"/>
  <circle cx="12" cy="2.5" r="1" fill="#000000"/>
  
  <!-- Head - with cutouts for eyes/mouth to respect background -->
  <path fill-rule="evenodd" clip-rule="evenodd" fill="#000000" d="M4 9C4 7.34315 5.34315 6 7 6H17C18.6569 6 20 7.34315 20 9V14C20 15.6569 18.6569 17 17 17H7C5.34315 17 4 15.6569 4 14V9ZM7.5 9.5C7.05817 9.5 6.7 9.85817 6.7 10.3V11.7C6.7 12.1418 7.05817 12.5 7.5 12.5H9.5C9.94183 12.5 10.3 12.1418 10.3 11.7V10.3C10.3 9.85817 9.94183 9.5 9.5 9.5H7.5ZM13.5 9.5C13.0582 9.5 12.7 9.85817 12.7 10.3V11.7C12.7 12.1418 13.0582 12.5 13.5 12.5H15.5C15.9418 12.5 16.3 12.1418 16.3 11.7V10.3C16.3 9.85817 15.9418 9.5 15.5 9.5H13.5ZM8 14C7.58579 14 7.25 14.3358 7.25 14.75C7.25 15.1642 7.58579 15.5 8 15.5H16C16.4142 15.5 16.75 15.1642 16.75 14.75C16.75 14.3358 16.4142 14 16 14H8Z" />
  
  <!-- Ears -->
  <rect x="2" y="10" width="2" height="4" rx="1" fill="#000000"/>
  <rect x="20" y="10" width="2" height="4" rx="1" fill="#000000"/>
</svg>
